<?xml version="1.0" standalone="no"?>
<!DOCTYPE svg PUBLIC "-//W3C//DTD SVG 20010904//EN"
 "http://www.w3.org/TR/2001/REC-SVG-20010904/DTD/svg10.dtd">
<svg version="1.0" xmlns="http://www.w3.org/2000/svg"
 width="96.000000pt" height="96.000000pt" viewBox="0 0 96.000000 96.000000"
 preserveAspectRatio="xMidYMid meet">
<metadata>
Created by potrace 1.14, written by Peter Selinger 2001-2017
</metadata>
<g transform="translate(0.000000,96.000000) scale(0.100000,-0.100000)"
fill="#000000" stroke="none">
<path d="M473 888 c-6 -7 -29 -48 -52 -90 l-42 -77 50 -3 49 -3 -26 -39 c-20
-28 -40 -43 -81 -57 -29 -10 -59 -23 -65 -29 -10 -7 -16 1 -25 33 -30 103
-116 188 -215 213 l-29 7 7 -74 c8 -92 51 -188 106 -241 l40 -37 -22 -43 c-18
-33 -23 -60 -23 -114 0 -62 4 -76 29 -113 103 -148 358 -187 526 -81 113 72
149 183 95 298 l-25 53 40 38 c55 52 100 152 107 240 7 82 5 84 -72 47 -79
-37 -133 -97 -161 -180 -9 -25 -19 -46 -23 -46 -4 0 -26 9 -49 20 -22 11 -50
20 -62 20 -32 0 -24 16 30 57 27 21 49 41 50 46 0 4 -16 7 -36 7 l-36 0 53 68
c28 37 56 73 62 80 7 9 -12 12 -91 12 -68 0 -103 -4 -109 -12z"/>
</g>
</svg>
